PathFileType	4	(X/Y/Z)	D:\TRACE\v60_Jaco2_6-2-23\JustBodyDRS_Motion2_9-v60.trc
DataRate	CameraRate	NumFrames	NumMarkers	Units	OrigDataRate	OrigDataStartFrame	OrigNumFrames
100.00	100.00	      38	9	mm	100.00	1724	      6895
Frame#	Time	front left toe			Front right toe			aft left toe			aft right toe			Arm			FL body			FR body			AL Body			AR Body			
		X1	Y1	Z1	X2	Y2	Z2	X3	Y3	Z3	X4	Y4	Z4	X5	Y5	Z5	X6	Y6	Z6	X7	Y7	Z7	X8	Y8	Z8	X9	Y9	Z9	

1724	17.230	-175.24580	99.08903	-254.20140	228.91982	28.65552	-255.79646	-93.50995	-5.45121	409.08313	257.87357	39.70073	331.68277	-63.65805	1234.17444	-331.83484	-55.08432	603.39551	-377.42346	104.70027	600.36835	-391.60846	24.15660	527.11469	562.43866	180.92445	517.84027	549.74475	
1725	17.240	-176.99124	89.77020	-256.03015	227.86591	28.00167	-255.99054	-94.90252	-4.67743	408.84232	255.29372	30.36624	329.59094	-63.81511	1234.19519	-333.99854	-55.89732	603.29675	-378.75641	103.77699	599.70703	-392.44528	22.73656	527.23022	561.14240	180.56874	517.95154	549.56885	
1726	17.250	-178.12981	80.10760	-257.32965	226.44798	27.27753	-256.54205	-95.99487	-3.82740	408.48279	253.94771	22.19910	328.90146	-63.67262	1234.19873	-335.33926	-56.92021	603.11169	-380.10175	102.16151	599.37927	-393.76395	21.28350	527.60455	559.68488	177.93851	518.23969	548.31427	
1727	17.260	-179.02988	71.20375	-258.14514	225.71896	26.81256	-256.67181	-97.30701	-3.15984	408.16959	250.94513	13.52687	328.51263	-63.89888	1234.41907	-336.87616	-58.07465	602.83649	-381.59348	101.33726	598.77771	-395.03510	19.51958	527.67725	558.40637	176.36346	517.90875	546.31897	
1728	17.270	-180.17786	63.43106	-258.54199	224.24405	26.10640	-257.17581	-98.52740	-2.61095	407.97983	249.35962	6.81581	328.97208	-64.38532	1234.43323	-338.17584	-59.20218	602.72827	-383.02203	101.41367	598.61548	-396.54431	18.27462	527.89917	557.08362	174.80649	517.85443	544.90588	
1729	17.280	-180.95766	56.11398	-258.37366	223.01164	25.68245	-257.47672	-99.91792	-1.75351	407.64334	248.96182	8.83980	325.73730	-64.74500	1234.01355	-339.79846	-60.00694	602.31470	-384.34906	99.94255	598.12018	-398.03528	16.43478	527.97540	555.77814	173.17056	517.81561	543.59125	
1730	17.290	-181.60675	49.64693	-258.22467	222.17798	25.25095	-257.61096	-100.72680	-1.21519	407.27054	247.92612	6.24599	326.66043	-65.31049	1233.69641	-341.74335	-60.53284	601.63025	-385.84225	99.05495	597.54413	-399.35626	15.01993	528.58344	554.48541	171.43141	519.11487	543.18140	
1731	17.300	-182.07280	42.74183	-258.41006	221.04488	24.54168	-257.89594	-101.52199	-0.39891	407.19019	247.35030	8.47331	325.88074	-66.01016	1233.10547	-344.06592	-61.62485	600.60803	-387.43405	98.28448	596.62549	-400.62598	12.97628	530.10388	553.31134	169.62889	520.21600	541.30121	
1732	17.310	-182.46089	35.49844	-258.59146	220.24791	24.20291	-258.23328	-103.11558	0.73752	406.52756	245.63860	9.12079	325.97592	-67.03378	1232.71863	-347.14590	-62.46608	599.96100	-388.82596	97.40663	595.92871	-402.00671	10.92407	531.42120	551.98035	167.77011	521.75415	540.78021	
1733	17.320	-183.75185	24.85346	-260.76215	218.84660	23.40289	-258.52567	-103.92176	1.32398	406.38458	243.58835	9.80156	326.03058	-68.41887	1232.03088	-350.66284	-63.18814	599.83435	-390.00244	96.17218	595.42767	-402.81296	9.70815	532.53790	550.92108	165.89038	522.60632	539.13599	
1734	17.330	-188.08496	25.71734	-262.39133	217.23822	22.75615	-258.97510	-106.11336	2.41733	405.72894	242.75171	10.56185	325.71722	-70.68321	1230.70178	-354.05292	-63.70453	600.87402	-391.07727	96.11797	595.93140	-404.09119	8.05995	533.64758	549.95795	164.84398	523.09698	538.47906	
1735	17.340	-188.38795	25.83303	-260.27234	215.23941	24.89299	-259.47324	-107.16962	4.27282	405.33588	241.20430	10.45540	325.37820	-72.07476	1230.03845	-356.80099	-64.48850	602.20233	-392.27344	95.30690	597.03345	-404.86279	6.28102	534.15210	549.26477	162.57037	523.62012	537.40869	
1736	17.350	-188.28978	24.79815	-261.98538	210.16434	27.49475	-256.53244	-106.42599	7.31444	405.62961	240.49303	10.10010	325.15060	-71.27451	1230.96582	-357.29587	-65.34095	602.86530	-393.38724	94.39935	597.95593	-406.12598	4.51445	534.91791	547.81390	160.77472	524.46924	536.14227	
1737	17.360	-189.36713	25.00046	-263.04327	206.50243	32.96784	-252.58234	-104.54295	11.38465	408.14505	239.63211	11.31226	324.33276	-69.42448	1233.75842	-357.69101	-66.31901	603.04401	-394.68076	93.19221	598.07281	-406.74615	3.18823	535.88440	546.52905	159.41896	525.80219	535.19788	
1738	17.370	-190.39098	23.93970	-262.48730	204.20560	41.06857	-250.83989	-100.99457	21.94335	408.38788	238.49007	11.61583	324.12946	-68.81303	1236.05286	-356.83322	-66.91884	602.46808	-395.61328	92.17775	597.52289	-408.08392	2.45976	536.89667	545.63104	158.68427	526.93793	533.97607	
1739	17.380	-191.55666	23.42890	-263.27493	202.70546	51.03166	-250.78670	-100.19620	31.54682	407.95505	237.19377	12.16178	323.93546	-68.59292	1236.88623	-357.15567	-68.29557	602.37885	-396.83914	91.39819	597.17395	-409.03632	1.03355	538.05664	544.44818	157.08110	527.45386	533.19098	
1740	17.390	-192.65808	22.43637	-263.33844	202.75345	62.54353	-252.97176	-101.61726	43.13303	406.50305	236.26511	12.38562	323.71259	-69.55322	1235.56018	-358.47989	-69.08077	601.76196	-397.16165	90.29248	596.76013	-410.10086	0.35740	537.90558	544.24896	156.46332	527.39404	532.46240	
1741	17.400	-193.46376	21.87001	-263.38174	203.13161	74.73038	-256.13809	-105.68810	54.99430	403.68530	235.42705	12.41632	323.57480	-68.94346	1235.19226	-359.33582	-70.58745	601.60095	-397.64371	88.69241	596.37421	-410.16400	0.34185	537.49847	543.95569	156.10410	526.95325	531.99078	
1742	17.410	-194.80661	21.63316	-263.66776	204.21495	87.10654	-259.69885	-109.85239	67.20419	399.55719	234.57463	13.10966	323.07455	-72.47732	1232.61682	-363.33322	-71.74474	601.38550	-398.09174	88.07525	595.60211	-410.86401	0.22420	537.68964	543.40515	155.87091	526.87207	531.27582	
1743	17.420	-195.96414	20.73857	-263.75690	204.13416	98.46022	-263.72839	-113.43440	79.72436	394.98093	233.45844	13.33967	322.81470	-74.30180	1231.13416	-365.42035	-72.98026	600.10193	-398.71588	86.46761	594.49469	-411.29703	-0.13315	538.22650	542.59235	155.84772	527.17297	530.63879	
1744	17.430	-196.71523	19.81076	-264.04507	204.13625	109.98277	-267.25354	-115.64948	92.63154	390.67203	232.96548	13.73908	322.74619	-75.86343	1230.17969	-366.43240	-73.90893	598.64038	-399.06876	85.51554	593.33502	-412.02173	-0.12234	538.68781	542.27649	155.24385	527.67157	530.21014	
1745	17.440	-198.24908	19.49391	-264.27072	204.33266	120.64426	-270.28751	-115.19482	104.64828	387.37848	232.06319	14.27249	322.43051	-77.55635	1229.75403	-367.43741	-75.21009	597.23199	-399.68924	84.81334	592.49670	-412.96487	-0.74220	539.12921	541.81049	154.74080	528.74005	529.67480	
1746	17.450	-199.30548	18.70946	-264.38611	205.03911	131.03029	-272.88107	-114.08770	116.00876	384.43164	230.97336	14.77920	322.11777	-79.38280	1229.17578	-368.15799	-76.09914	596.06335	-399.98456	83.78491	591.12048	-413.36801	-1.15410	540.26581	541.39752	154.45230	529.56641	528.90564	
1747	17.460	-199.91547	17.87177	-264.65173	205.44249	140.07481	-275.75092	-112.28230	124.96466	381.60114	230.25604	15.49835	321.75586	-81.06857	1228.41968	-369.59802	-77.08508	595.18561	-400.35336	82.81499	590.13916	-413.67709	-1.59965	541.20233	541.07361	154.30775	530.61328	528.43866	
1748	17.470	-201.04527	17.55732	-264.77762	205.69762	147.93593	-278.21854	-111.90502	131.14525	379.60025	229.16264	15.99985	321.59845	-82.70547	1227.06018	-371.72516	-78.40106	594.10858	-400.85788	81.52116	589.28906	-414.28568	-1.25624	542.11584	540.74646	154.11334	531.39044	528.06128	
1749	17.480	-202.29887	16.80763	-265.07605	205.73019	153.27945	-280.60059	-112.87528	136.12776	376.88715	228.21915	16.46766	321.06253	-84.97421	1224.76233	-373.43939	-79.48806	593.25696	-401.02823	80.07735	588.49835	-414.49078	-1.49936	542.65393	540.49207	153.78859	532.35492	527.55469	
1750	17.490	-202.88152	16.17881	-265.47998	205.98543	155.58008	-282.15396	-114.34184	138.77843	375.11740	227.21680	16.95680	320.73074	-85.69987	1223.90735	-375.92047	-80.63466	592.37097	-401.04727	79.11214	587.93414	-415.40872	-1.59600	543.29431	540.23828	153.82321	533.11407	526.81018	
1751	17.500	-203.66081	15.54329	-265.55139	205.44489	154.71864	-283.85483	-115.73167	139.95329	373.84219	226.59570	17.62008	320.31613	-87.65836	1223.30017	-377.36157	-81.64904	591.53314	-401.54678	78.10777	587.40753	-415.55725	-1.36352	544.17529	539.85431	153.81468	534.07489	526.44177	
1752	17.510	-204.85614	15.09169	-265.65829	205.42775	151.21918	-285.18094	-114.86492	136.72235	373.46857	225.35417	17.93863	319.84613	-89.83619	1222.96326	-378.44540	-82.66618	590.53186	-401.86887	76.91099	586.62549	-416.05338	-1.48639	545.26160	539.61719	153.77998	535.32428	525.81976	
1753	17.520	-205.81647	14.69977	-265.81079	204.72070	146.50702	-287.08685	-115.93213	134.35152	371.99136	225.01935	18.70685	319.81027	-92.18107	1222.34473	-378.99973	-83.56345	589.84351	-402.24747	76.01238	585.93628	-416.90256	-1.54447	546.02490	538.91071	153.52188	536.27924	525.39209	
1754	17.530	-206.40775	13.71373	-266.07266	203.80728	140.54346	-289.03757	-116.27514	130.41974	370.58105	224.25658	19.40953	319.49005	-94.46262	1221.54553	-380.01620	-84.89423	588.81775	-402.81155	75.00921	585.03052	-417.19162	-1.49104	547.08252	539.09686	153.15189	537.02173	523.84155	
1755	17.540	-207.70605	13.25362	-266.23227	202.48827	134.17328	-291.35333	-116.94632	124.19857	368.83920	223.45758	19.87796	319.21637	-96.25104	1220.55872	-381.14493	-85.63368	587.74103	-403.17856	73.97807	584.08624	-417.44672	-1.99412	547.44312	538.26361	152.99831	537.87659	524.18518	
1756	17.550	-208.77696	12.47503	-266.29306	201.36972	127.80475	-294.14084	-117.75259	116.88323	366.70398	222.65094	20.20989	318.84393	-97.51273	1219.47302	-382.60333	-86.38183	586.83398	-403.46588	72.99750	583.49579	-418.01590	-2.37703	547.65411	537.81342	152.54070	538.50507	523.71027	
1757	17.560	-209.37320	11.89936	-266.49612	201.49236	120.88805	-296.72122	-119.98956	109.39714	363.69016	222.23878	20.55795	318.52304	-98.50295	1218.27014	-384.38510	-87.36807	586.19385	-404.14227	72.31353	582.72980	-418.66077	-2.82251	547.92365	537.29175	152.13483	538.35809	522.25714	
1758	17.570	-210.38115	11.45922	-266.75983	201.24644	113.37227	-299.42856	-121.57230	100.53152	360.35483	221.28262	21.08656	318.02469	-99.74160	1217.36511	-386.07434	-88.06285	585.23291	-404.70129	71.37299	582.19666	-419.38101	-3.25950	548.26117	536.72455	151.19656	539.18738	522.36871	
1759	17.580	-211.60463	11.00047	-267.28476	201.77797	105.14234	-301.61526	-122.90399	91.06294	356.93286	220.52899	21.38643	317.74249	-101.07814	1216.60291	-387.40536	-88.65562	584.34515	-405.40707	70.69564	581.28723	-419.63416	-4.44227	548.63977	536.02484	150.74442	539.85980	521.95007	
1760	17.590	-212.23053	9.99137	-267.50006	202.36043	96.62204	-303.69751	-124.24911	81.92979	353.41919	219.93439	22.31826	317.48581	-102.63545	1215.84094	-388.51840	-88.31796	583.07123	-405.81570	71.09953	580.43317	-420.23178	-5.11658	548.98383	535.46075	149.30238	539.82562	520.39941	
1761	17.600	-212.71317	9.19352	-267.80276	202.95091	87.88860	-305.02002	-126.56700	73.23147	349.59534	219.36668	22.89112	317.31357	-104.07248	1214.97217	-389.78500	-89.05308	582.16687	-406.98959	69.16769	580.14941	-422.29807	-6.50290	549.35571	534.76434	148.21147	540.97821	520.62018	
